<svg xmlns="http://www.w3.org/2000/svg" viewBox="0 0 512 512" width="512" height="512">
  <defs>
    <linearGradient id="g" x1="0" y1="0" x2="1" y2="1">
      <stop offset="0" stop-color="#7c6cff"/>
      <stop offset="1" stop-color="#2dd4bf"/>
    </linearGradient>
  </defs>
  <rect width="512" height="512" rx="112" fill="#0b0c14"/>
  <g fill="none" stroke="url(#g)" stroke-width="26" stroke-linecap="round" stroke-linejoin="round">
    <path d="M256 96c-52 0-92 38-92 86 0 20 7 37 19 51-12 14-19 32-19 52 0 48 40 87 92 87"/>
    <path d="M256 96c52 0 92 38 92 86 0 20-7 37-19 51 12 14 19 32 19 52 0 48-40 87-92 87"/>
    <line x1="256" y1="96" x2="256" y2="416"/>
  </g>
  <g fill="url(#g)">
    <circle cx="176" cy="182" r="16"/>
    <circle cx="336" cy="182" r="16"/>
    <circle cx="150" cy="285" r="16"/>
    <circle cx="362" cy="285" r="16"/>
  </g>
</svg>
